<svg width="550" height="550" viewBox="0 0 550 550" fill="none" xmlns="http://www.w3.org/2000/svg">
<path d="M58.5544 360.48C60.7705 318.938 34.865 278.346 48.176 242.19C59.0906 212.607 86.0923 208.972 109.022 188.272C129.964 169.356 127.473 123.102 173.879 106.052C199.457 96.6557 247.908 118.39 282.896 119.339C354.895 121.294 401.533 92.2899 432.55 117.199C466.774 144.666 442.752 167.297 466.954 188.272C492.404 210.329 508.994 218.69 513.403 249.318C519.154 289.369 502.308 303.16 499.356 333.692C496.509 363.237 536.969 442.7 504.287 442.7H67.0108C27.4336 442.7 56.827 392.925 58.5544 360.48Z" fill="#FEF8EC"/>
<path d="M124.151 223.308C128.626 220.46 134.828 220.389 139.18 223.431C143.313 226.321 145.415 231.579 145.211 236.623C145.007 241.668 142.587 247.823 138.022 250.466L124.616 250.414C120.345 247.267 117.441 242.199 117.242 236.889C117.042 231.579 119.676 226.174 124.151 223.308Z" fill="#FFE594"/>
<path d="M131.535 225.913C131.654 224.589 131.767 223.516 131.858 222.781C131.878 222.396 131.94 222.014 132.043 221.642C132.078 222.025 132.078 222.411 132.043 222.795C131.995 223.616 131.929 224.67 131.858 225.937C131.692 228.585 131.473 232.243 131.293 236.291C131.113 240.339 131.013 244.003 130.947 246.655C130.909 247.922 130.88 248.981 130.852 249.802C130.862 250.188 130.835 250.574 130.771 250.955C130.707 250.574 130.68 250.188 130.69 249.802C130.662 249.057 130.648 247.984 130.643 246.655C130.643 243.998 130.69 240.325 130.866 236.277C131.041 232.229 131.293 228.561 131.535 225.913ZM133.277 221.723C134.303 222.325 135.244 223.06 136.076 223.91C138.217 226.003 140.423 229.795 140.955 234.398C141.157 236.55 141.049 238.72 140.637 240.842C140.314 242.566 139.884 244.268 139.351 245.939C138.9 247.362 138.478 248.497 138.179 249.261C138.043 249.671 137.869 250.068 137.661 250.447C137.748 250.023 137.868 249.608 138.022 249.204C138.274 248.411 138.653 247.263 139.061 245.834C139.549 244.165 139.945 242.47 140.248 240.757C140.632 238.669 140.726 236.539 140.528 234.426C140.102 230.577 138.467 226.962 135.858 224.1C133.813 221.946 132.062 221.253 132.104 221.134C132.104 221.134 132.218 221.163 132.418 221.258C132.713 221.395 133 221.551 133.277 221.723Z" fill="#FFCB78"/>
<path d="M124.663 227.863C125.467 226.208 126.575 224.719 127.928 223.474C128.872 222.674 129.95 222.047 131.113 221.623C131.422 221.513 131.739 221.425 132.062 221.362C132.176 221.334 132.295 221.324 132.413 221.334C132.413 221.371 131.938 221.447 131.151 221.78C130.041 222.245 129.014 222.886 128.109 223.678C126.821 224.922 125.768 226.388 125 228.006C124.085 230.005 123.47 232.128 123.178 234.308C122.644 238.29 123.039 242.343 124.331 246.148C125.28 249.076 126.348 250.698 126.258 250.746C125.987 250.386 125.747 250.003 125.541 249.602C125.337 249.223 125.11 248.743 124.834 248.179C124.559 247.614 124.289 246.978 124.047 246.238C122.654 242.408 122.213 238.298 122.761 234.26C123.063 232.043 123.704 229.885 124.663 227.863Z" fill="#FFCB78"/>
<path d="M139.953 261.532C139.826 262.893 139.195 264.156 138.185 265.076C137.175 265.996 135.858 266.506 134.491 266.506H127.221C125.858 266.505 124.543 265.997 123.533 265.08C122.524 264.163 121.891 262.904 121.759 261.547L120.858 252.25L140.841 252.094L139.953 261.532Z" fill="#5C94B9"/>
<path d="M140.599 254.395C140.599 254.395 131.805 254.941 121.18 255.586L120.858 252.265L140.841 252.108L140.599 254.395ZM138.378 264.887C137.869 265.4 137.264 265.808 136.597 266.085C135.929 266.363 135.214 266.506 134.491 266.506H127.221C125.858 266.505 124.543 265.997 123.533 265.08C122.524 264.164 121.891 262.904 121.759 261.547L121.394 257.75C121.394 257.75 125.152 265.998 138.378 264.887Z" fill="#4B83A8"/>
<path d="M121.437 249.73H140.366C141.265 249.73 141.994 250.459 141.994 251.358V252.824C141.994 253.723 141.265 254.452 140.366 254.452H121.437C120.538 254.452 119.809 253.723 119.809 252.824V251.358C119.809 250.459 120.538 249.73 121.437 249.73Z" fill="#F84558"/>
<path d="M145.425 234.545C148.353 234.208 148.491 236.343 144.661 236.192C143.275 236.381 142.041 234.925 145.425 234.545ZM144.618 229.638C147.94 228.276 147.152 231.138 143.717 231.579C142.867 231.261 142.578 230.559 144.618 229.638ZM138.359 224.541C138.497 223.422 138.326 223.763 139.28 221.889C141.837 219.364 140.167 226.577 138.359 224.541ZM142.364 225.348C145.591 223.773 141.709 230.094 140.646 227.569C141.159 226.549 140.888 226.834 142.364 225.348ZM136.252 218.837C137.296 219.412 136.779 221.927 135.303 222.833C134.178 222.876 135.013 219.07 136.252 218.837ZM129.176 221.813C128.73 220.831 128.227 220.356 128.968 219.094C130.121 218.292 131.412 223.478 129.176 221.813ZM124.868 222.933C124.512 222.235 123.34 222.017 124.393 221.001C125.409 220.223 128.849 225.505 124.868 222.933ZM122.519 226.027C122.148 226.06 119.595 225.192 120.302 223.63C120.426 223.232 124.63 225.149 122.519 226.027ZM120.644 229.752C120.45 229.97 116.373 228.907 117.356 227.56C117.37 227.038 122.49 228.556 120.644 229.752ZM118.058 231.603C121.532 231.902 119.387 234.45 116.207 232.651C115.832 231.987 115.989 231.465 118.058 231.603ZM117.028 236.12C120.25 234.853 119.472 237.648 116.169 238.019C115.291 237.957 114.921 237.017 117.028 236.12ZM116.995 240.804C119.415 238.27 122.262 240.538 116.667 242.47C116.003 242.413 115.457 241.663 116.995 240.804ZM119.557 244.15C121.83 241.582 122.262 244.714 119.624 246.238C117.925 247.239 117.925 245.455 119.557 244.15ZM144.063 248.544C143.778 248.724 139.356 247.149 140.452 245.853C140.774 245.379 145.966 247.339 144.063 248.544ZM144.414 242.536C146.512 243.305 146.369 245.739 142.839 243.528C141.856 242.816 142.018 241.502 144.414 242.536ZM145.876 238.882C150.678 239.831 145.069 241.881 143.731 239.385C143.788 239.044 144.139 238.697 145.876 238.882ZM140.67 237.126C142.511 236.894 144.637 238.811 140.827 238.768C139.949 239.006 137.177 236.875 140.67 237.126ZM138.364 233.862C138.587 234.882 135.013 235.285 134.904 233.525C135.037 233.098 137.794 233.169 138.364 233.862ZM135.559 229.349C137.211 228.589 138.848 229.662 136.086 230.872C134.923 231.579 132.55 230.63 135.559 229.349ZM134.297 225.158C129.362 229.548 136.893 227.337 134.297 225.158ZM135.36 240.425C135.075 240.349 133.428 239.95 134.192 238.835C134.8 238.033 140.086 240.899 135.36 240.425ZM133.969 245.611C137.685 245.227 139.56 250.314 133.637 246.451C133.723 246.456 133.191 246.105 133.969 245.611ZM139.92 243.215C143.128 244.112 139.337 246.456 138.155 243.466C138.359 243.049 139.042 242.878 139.92 243.215ZM139.517 230.915C142.786 229.657 142.184 232.538 138.568 232.756C137.486 232.699 137.391 231.437 139.517 230.915ZM127.995 230.374C128.664 230.255 131.274 233.083 128.821 232.661C127.368 232.158 125.423 230.022 127.995 230.374ZM127.905 235.959C131.07 236.481 127.805 239.143 126.215 236.434C126.372 235.988 127.008 235.741 127.905 235.959ZM126.975 241.668C129.713 240.425 129.898 242.987 126.206 243.566C125.608 243.443 124.806 242.579 126.975 241.668ZM129.305 247.087C130.183 247.367 127.881 251.088 126.96 249.213C127.027 249.023 127.511 247.044 129.305 247.087ZM128.934 226.359C129.233 226.52 129.542 226.639 129.884 227.545C129.551 229.619 124.849 225.286 128.934 226.359ZM123.653 231.859C126.661 231.935 125.323 234.834 121.997 232.765C121.797 232.054 121.959 231.626 123.653 231.859ZM125.019 226.957C125.727 227.246 126.837 227.431 126.557 228.433C125.513 229.947 120.208 225.884 125.019 226.957ZM122.49 239.49C126.168 238.303 126.386 240.733 122.86 241.051C121.294 241.601 119.249 239.884 122.49 239.49ZM125.893 245.208C126.528 246.242 124.801 248.297 123.045 248.468C121.959 248.041 124.716 244.786 125.893 245.208Z" fill="#FFCB78"/>
<path d="M135.635 347.321C135.635 347.321 136.053 361.211 148.381 369.326H156.154C156.154 369.326 153.113 349.352 135.635 347.321Z" fill="#F2E6D6"/>
<path d="M152.804 369.326H156.126C156.126 369.326 154.845 360.912 149.169 354.453C149.098 362.554 152.804 369.326 152.804 369.326Z" fill="#D8CDC0"/>
<path d="M155.049 369.326H168.051C168.051 369.326 174.956 316.324 149.098 287.395C149.098 287.395 137.182 330.285 155.049 369.326Z" fill="#F2E6D6"/>
<path d="M165.574 369.326H168.051C169.17 358.721 169.186 348.03 168.099 337.422C163.852 349.433 165.574 369.326 165.574 369.326Z" fill="#D8CDC0"/>
<path d="M167.515 369.326H180.518C194.498 346.547 179.474 307.635 179.474 307.635C163.192 334.228 167.515 369.326 167.515 369.326Z" fill="#F2E6D6"/>
<path d="M176.726 369.881H176.83C176.902 369.867 176.969 369.84 177.03 369.8C177.09 369.76 177.142 369.709 177.183 369.649C177.223 369.589 177.251 369.521 177.266 369.45C177.28 369.38 177.281 369.307 177.267 369.235C172.37 343.705 179.929 308.109 180.005 307.753C180.035 307.609 180.007 307.459 179.927 307.336C179.847 307.212 179.722 307.125 179.578 307.094C179.507 307.075 179.432 307.07 179.359 307.081C179.286 307.092 179.216 307.117 179.153 307.156C179.09 307.194 179.035 307.245 178.993 307.305C178.95 307.366 178.92 307.434 178.904 307.506C178.824 307.867 171.217 343.681 176.161 369.435C176.188 369.564 176.259 369.679 176.363 369.761C176.466 369.842 176.595 369.885 176.726 369.881Z" fill="#FEF8EC"/>
<path d="M170.837 369.326H180.518C185.766 360.784 186.924 349.955 186.326 339.766C170.984 352.702 170.837 369.326 170.837 369.326Z" fill="#D8CDC0"/>
<path d="M171.962 369.326H184.959C205.574 355.758 206.267 332.539 206.267 332.539C177.049 335.927 171.962 369.326 171.962 369.326Z" fill="#F2E6D6"/>
<path d="M180.508 369.881C180.632 369.88 180.753 369.837 180.85 369.76C180.947 369.683 181.016 369.575 181.044 369.454C185.961 349.2 206.399 333.137 206.608 332.975C206.669 332.932 206.721 332.877 206.76 332.813C206.799 332.749 206.824 332.678 206.835 332.604C206.846 332.531 206.842 332.455 206.823 332.383C206.804 332.311 206.771 332.243 206.725 332.184C206.68 332.125 206.622 332.075 206.557 332.039C206.492 332.002 206.42 331.979 206.346 331.971C206.272 331.963 206.196 331.97 206.125 331.992C206.053 332.014 205.987 332.05 205.93 332.097C205.721 332.264 184.978 348.559 179.967 369.193C179.933 369.336 179.957 369.486 180.033 369.612C180.11 369.737 180.233 369.827 180.375 369.862C180.419 369.873 180.463 369.879 180.508 369.881ZM160.368 368.448C160.513 368.449 160.652 368.394 160.756 368.293C160.86 368.193 160.92 368.056 160.924 367.911C161.773 339.913 149.758 287.794 149.634 287.267C149.623 287.191 149.597 287.118 149.556 287.052C149.515 286.987 149.461 286.931 149.398 286.887C149.334 286.844 149.262 286.814 149.187 286.8C149.111 286.786 149.033 286.787 148.958 286.805C148.883 286.822 148.813 286.855 148.751 286.901C148.69 286.948 148.638 287.006 148.601 287.073C148.563 287.14 148.539 287.215 148.532 287.291C148.524 287.368 148.533 287.445 148.557 287.519C148.676 288.041 160.663 340.018 159.818 367.878C159.815 367.951 159.827 368.023 159.853 368.092C159.879 368.16 159.917 368.222 159.967 368.275C160.017 368.328 160.077 368.37 160.143 368.4C160.21 368.43 160.281 368.446 160.354 368.448H160.368ZM151.703 369.881C151.768 369.88 151.833 369.867 151.893 369.843C152.03 369.793 152.142 369.69 152.204 369.558C152.267 369.425 152.274 369.274 152.225 369.136C146.849 354.358 136.053 346.937 135.943 346.865C135.883 346.825 135.816 346.797 135.745 346.782C135.674 346.768 135.6 346.767 135.529 346.781C135.458 346.795 135.39 346.823 135.33 346.863C135.27 346.903 135.218 346.955 135.177 347.015C135.137 347.075 135.108 347.142 135.094 347.214C135.079 347.285 135.079 347.358 135.093 347.429C135.107 347.5 135.135 347.568 135.175 347.628C135.215 347.689 135.266 347.741 135.327 347.781C135.431 347.852 145.933 355.089 151.181 369.515C151.221 369.622 151.292 369.714 151.385 369.78C151.478 369.845 151.589 369.88 151.703 369.881Z" fill="#FEF8EC"/>
<path d="M138.933 367.897C130.5 392.825 138.8 421.896 157.44 439.687H173.575C192.215 421.896 200.515 392.825 192.082 367.897H138.933ZM179.678 440.793H151.357C149.349 440.793 147.703 443.459 147.703 445.472H183.332C183.332 443.459 181.685 440.793 179.678 440.793Z" fill="#F2E6D6"/>
<path d="M138.933 368.448H192.082C192.159 368.455 192.237 368.446 192.31 368.421C192.383 368.397 192.451 368.357 192.508 368.305C192.565 368.253 192.61 368.19 192.642 368.119C192.673 368.049 192.689 367.972 192.689 367.895C192.689 367.818 192.673 367.741 192.642 367.671C192.61 367.6 192.565 367.537 192.508 367.485C192.451 367.433 192.383 367.393 192.31 367.368C192.237 367.344 192.159 367.335 192.082 367.342H138.933C138.795 367.355 138.667 367.419 138.574 367.521C138.481 367.623 138.429 367.757 138.429 367.895C138.429 368.033 138.481 368.167 138.574 368.269C138.667 368.371 138.795 368.435 138.933 368.448ZM135.635 390.078H170.837C170.984 390.078 171.125 390.019 171.229 389.915C171.334 389.811 171.392 389.67 171.392 389.522C171.392 389.375 171.334 389.234 171.229 389.13C171.125 389.026 170.984 388.967 170.837 388.967H135.644C135.497 388.967 135.356 389.026 135.252 389.13C135.148 389.234 135.089 389.375 135.089 389.522C135.089 389.67 135.148 389.811 135.252 389.915C135.356 390.019 135.497 390.078 135.644 390.078H135.635ZM138.753 409.534H158.024C158.101 409.541 158.179 409.532 158.252 409.508C158.325 409.483 158.392 409.444 158.449 409.392C158.507 409.339 158.552 409.276 158.583 409.205C158.614 409.135 158.631 409.058 158.631 408.981C158.631 408.904 158.614 408.828 158.583 408.757C158.552 408.686 158.507 408.623 158.449 408.571C158.392 408.519 158.325 408.479 158.252 408.455C158.179 408.43 158.101 408.421 158.024 408.428H138.767C138.69 408.421 138.613 408.43 138.539 408.455C138.466 408.479 138.399 408.519 138.342 408.571C138.285 408.623 138.239 408.686 138.208 408.757C138.177 408.828 138.161 408.904 138.161 408.981C138.161 409.058 138.177 409.135 138.208 409.205C138.239 409.276 138.285 409.339 138.342 409.392C138.399 409.444 138.466 409.483 138.539 409.508C138.613 409.532 138.69 409.541 138.767 409.534H138.753ZM163.909 401.685H194.204C194.351 401.685 194.492 401.627 194.596 401.522C194.7 401.418 194.759 401.277 194.759 401.13C194.759 400.983 194.7 400.841 194.596 400.737C194.492 400.633 194.351 400.575 194.204 400.575H163.909C163.761 400.575 163.62 400.633 163.516 400.737C163.412 400.841 163.353 400.983 163.353 401.13C163.353 401.277 163.412 401.418 163.516 401.522C163.62 401.627 163.761 401.685 163.909 401.685Z" fill="#FEF8EC"/>
<path d="M479.288 266.506H79.3159V277.363H479.288V266.506Z" fill="white"/>
<path d="M78.9837 277.695H479.625V266.169H78.9837V277.695ZM478.951 277.026H79.6528V266.838H478.951V277.026Z" fill="#1B2E4E"/>
<path d="M463.248 280.006H176.09V445.472H173.352V277.273H465.981V445.472H463.248V280.006Z" fill="#1B2E4E"/>
<path d="M386.424 280.006H93.0254V445.472H90.2873V277.273H389.157V445.472H386.424V280.006Z" fill="#1B2E4E"/>
<path d="M79.3158 277.359H187.745V266.501H79.3158V277.359Z" fill="#F2E6D6"/>
<path d="M78.9836 277.695H188.082V266.169H78.9836V277.695ZM187.413 277.026H79.6527V266.838H187.413V277.026ZM226.962 266.553H249.849L258.154 223.317C258.466 221.691 258.415 220.016 258.005 218.411C257.595 216.807 256.836 215.313 255.781 214.037C254.726 212.76 253.403 211.732 251.905 211.026C250.407 210.32 248.771 209.954 247.116 209.954C244.502 209.954 241.971 210.865 239.957 212.53C237.942 214.194 236.571 216.508 236.078 219.075L226.962 266.553Z" fill="#1B2E4E"/>
<path d="M286.954 262.695H226.335V266.553H286.954V262.695Z" fill="#E1CAC2"/>
<path d="M286.954 262.23H237.231V263.165H286.954V262.23Z" fill="#361E4D"/>
<path d="M316.172 249.531H185.486C183.804 249.531 182.182 248.91 180.931 247.786C179.68 246.662 178.889 245.115 178.71 243.443L170.443 164.502C170.343 163.553 170.444 162.593 170.739 161.686C171.034 160.778 171.516 159.943 172.155 159.233C172.793 158.524 173.573 157.957 174.445 157.569C175.317 157.181 176.261 156.98 177.215 156.98H307.9C309.585 156.979 311.209 157.603 312.461 158.73C313.712 159.857 314.502 161.408 314.677 163.083L322.943 242.019C323.042 242.967 322.94 243.926 322.644 244.832C322.349 245.738 321.866 246.573 321.228 247.281C320.59 247.989 319.81 248.555 318.939 248.943C318.068 249.33 317.125 249.531 316.172 249.531Z" fill="#F84558"/>
<path d="M185.486 250.086H316.172C317.204 250.086 318.224 249.869 319.166 249.449C320.109 249.029 320.953 248.416 321.643 247.649C322.333 246.882 322.855 245.979 323.174 244.997C323.493 244.016 323.602 242.979 323.494 241.952L315.227 163.012C315.042 161.198 314.19 159.519 312.836 158.299C311.482 157.079 309.723 156.406 307.9 156.411H177.215C176.182 156.41 175.161 156.626 174.218 157.045C173.274 157.464 172.43 158.078 171.739 158.845C171.048 159.612 170.526 160.516 170.207 161.498C169.888 162.48 169.779 163.518 169.888 164.544L178.159 243.485C178.345 245.298 179.198 246.977 180.551 248.197C181.905 249.417 183.664 250.09 185.486 250.086ZM307.919 157.516C309.468 157.512 310.963 158.084 312.114 159.12C313.265 160.157 313.989 161.585 314.145 163.126L322.393 242.066C322.486 242.938 322.394 243.82 322.123 244.654C321.852 245.488 321.409 246.256 320.823 246.908C320.236 247.56 319.518 248.081 318.717 248.437C317.916 248.793 317.049 248.977 316.172 248.976H185.486C183.938 248.979 182.444 248.408 181.294 247.372C180.144 246.337 179.419 244.911 179.26 243.371L170.994 164.426C170.903 163.554 170.997 162.673 171.268 161.84C171.54 161.007 171.983 160.24 172.569 159.589C173.155 158.938 173.872 158.417 174.672 158.06C175.472 157.703 176.339 157.518 177.215 157.516H307.919Z" fill="#1B2E4E"/>
<path d="M183.052 239.846C182.642 239.846 182.246 239.694 181.941 239.42C181.636 239.145 181.444 238.768 181.4 238.36L173.627 164.151C173.575 163.667 173.621 163.178 173.764 162.713C173.907 162.248 174.143 161.817 174.458 161.446C174.823 161.034 175.273 160.707 175.777 160.487C176.28 160.266 176.826 160.158 177.376 160.169H307.877C308.769 160.167 309.631 160.496 310.295 161.093C310.959 161.69 311.377 162.513 311.469 163.401L319.304 238.014C319.328 238.245 319.304 238.479 319.232 238.701C319.16 238.922 319.043 239.126 318.887 239.298C318.731 239.471 318.541 239.609 318.328 239.704C318.115 239.798 317.885 239.846 317.652 239.846H183.052Z" fill="white"/>
<path d="M189.686 266.51H316.504V261.765C316.504 261.261 316.304 260.779 315.948 260.423C315.592 260.067 315.109 259.867 314.606 259.867H191.584C191.081 259.867 190.598 260.067 190.242 260.423C189.886 260.779 189.686 261.261 189.686 261.765V266.51Z" fill="#F84558"/>
<path d="M203.837 212.298L200.041 212.028L199.618 207.757L203.305 207.016C203.464 205.448 203.913 203.922 204.629 202.518L202.034 199.585L204.677 196.363L207.89 198.546C209.097 197.591 210.48 196.885 211.961 196.467L212.07 192.576L216.227 192.315L217.091 196.145C218.65 196.377 220.152 196.9 221.519 197.687L224.271 195.134L227.507 197.981L225.514 201.208C226.491 202.491 227.232 203.937 227.702 205.479L231.498 205.749L231.916 210.02L228.229 210.761C228.073 212.33 227.623 213.856 226.905 215.259L229.5 218.197L226.862 221.414L223.645 219.236C222.435 220.186 221.052 220.892 219.573 221.315L219.464 225.201L215.311 225.462L214.443 221.632C212.884 221.399 211.382 220.876 210.016 220.09L207.268 222.648L204.032 219.801L206.02 216.579C205.045 215.292 204.306 213.843 203.837 212.298Z" fill="#FFA47F"/>
<path d="M216.972 224.081L221.129 223.82C221.198 223.816 221.262 223.786 221.311 223.737C221.359 223.688 221.387 223.623 221.39 223.554L221.495 219.862C222.868 219.449 224.154 218.79 225.291 217.917L228.338 219.986C228.395 220.025 228.464 220.042 228.533 220.032C228.602 220.023 228.664 219.987 228.708 219.934L231.351 216.711C231.393 216.662 231.416 216.599 231.416 216.533C231.416 216.468 231.393 216.405 231.351 216.356L228.879 213.56C229.533 212.234 229.955 210.806 230.127 209.337L233.615 208.635C233.681 208.621 233.741 208.584 233.782 208.53C233.823 208.475 233.843 208.408 233.838 208.34L233.415 204.046C233.408 203.981 233.378 203.921 233.332 203.876C233.285 203.831 233.224 203.804 233.159 203.799L229.562 203.543C229.101 202.095 228.405 200.732 227.503 199.509L229.401 196.448C229.434 196.392 229.448 196.326 229.438 196.261C229.428 196.196 229.397 196.137 229.349 196.092L226.107 193.245C226.057 193.198 225.991 193.172 225.922 193.172C225.854 193.172 225.787 193.198 225.737 193.245L223.137 195.661C221.842 194.953 220.436 194.472 218.98 194.237L218.154 190.592C218.14 190.527 218.103 190.47 218.05 190.431C217.997 190.391 217.931 190.373 217.865 190.379L213.712 190.64C213.643 190.643 213.578 190.673 213.53 190.722C213.482 190.771 213.454 190.837 213.451 190.906L213.347 194.598C211.975 195.011 210.689 195.669 209.55 196.538L206.504 194.474C206.447 194.435 206.377 194.418 206.309 194.428C206.24 194.437 206.178 194.473 206.134 194.526L203.491 197.744C203.449 197.795 203.426 197.858 203.426 197.924C203.426 197.99 203.449 198.054 203.491 198.104L205.953 200.881C205.301 202.207 204.88 203.636 204.71 205.104L201.222 205.802C201.155 205.815 201.095 205.853 201.054 205.909C201.012 205.964 200.993 206.032 200.999 206.101L201.421 210.395C201.429 210.46 201.459 210.52 201.505 210.565C201.552 210.61 201.613 210.637 201.678 210.642L205.275 210.898C205.734 212.347 206.43 213.71 207.334 214.932L205.436 217.993C205.402 218.048 205.388 218.114 205.398 218.178C205.408 218.242 205.44 218.301 205.488 218.344L208.725 221.191C208.776 221.239 208.843 221.265 208.912 221.265C208.982 221.265 209.049 221.239 209.1 221.191L211.719 218.766C213.012 219.482 214.418 219.971 215.876 220.214L216.702 223.858C216.714 223.921 216.748 223.978 216.797 224.018C216.846 224.059 216.908 224.081 216.972 224.081ZM220.859 223.284L217.191 223.516L216.374 219.915C216.363 219.86 216.335 219.811 216.294 219.774C216.253 219.736 216.202 219.713 216.147 219.706C214.621 219.475 213.152 218.961 211.814 218.192C211.763 218.164 211.704 218.153 211.647 218.159C211.589 218.166 211.535 218.191 211.491 218.23L208.924 220.603L206.048 218.069L207.918 215.046C207.949 215 207.966 214.945 207.966 214.889C207.966 214.833 207.949 214.779 207.918 214.733C206.961 213.474 206.236 212.055 205.778 210.542C205.761 210.489 205.729 210.441 205.685 210.406C205.641 210.372 205.587 210.351 205.531 210.348L201.977 210.092L201.607 206.295L205.047 205.602C205.105 205.592 205.158 205.563 205.198 205.519C205.237 205.475 205.261 205.419 205.265 205.36C205.42 203.826 205.859 202.334 206.561 200.961C206.587 200.911 206.597 200.855 206.59 200.799C206.583 200.743 206.56 200.69 206.523 200.648L204.055 197.886L206.385 195.039L209.389 197.079C209.438 197.114 209.496 197.133 209.555 197.133C209.615 197.133 209.673 197.114 209.721 197.079C210.899 196.149 212.249 195.46 213.693 195.053C213.751 195.037 213.801 195.003 213.838 194.956C213.875 194.909 213.896 194.852 213.897 194.792L213.997 191.157L217.665 190.925L218.481 194.526C218.493 194.581 218.521 194.63 218.562 194.667C218.603 194.705 218.654 194.728 218.709 194.735C220.234 194.965 221.701 195.479 223.037 196.249C223.089 196.277 223.148 196.288 223.207 196.281C223.265 196.274 223.32 196.25 223.365 196.211L225.932 193.838L228.808 196.368L226.938 199.395C226.905 199.441 226.888 199.496 226.888 199.552C226.888 199.608 226.905 199.663 226.938 199.708C227.895 200.967 228.62 202.386 229.078 203.899C229.094 203.952 229.127 204 229.171 204.035C229.215 204.069 229.269 204.09 229.325 204.093L232.874 204.345L233.249 208.141L229.809 208.834C229.751 208.845 229.697 208.874 229.657 208.918C229.617 208.962 229.592 209.017 229.586 209.076C229.433 210.61 228.995 212.102 228.295 213.475C228.268 213.525 228.257 213.582 228.264 213.638C228.27 213.694 228.295 213.747 228.333 213.788L230.772 216.545L228.442 219.393L225.434 217.352C225.386 217.318 225.329 217.299 225.27 217.299C225.211 217.299 225.154 217.318 225.106 217.352C223.928 218.281 222.578 218.97 221.134 219.378C221.077 219.395 221.026 219.429 220.989 219.475C220.953 219.522 220.932 219.58 220.93 219.639L220.859 223.284Z" fill="#1B2E4E"/>
<path d="M222.249 205.294C224.01 208.734 222.786 212.887 219.516 214.552C216.246 216.218 212.165 214.799 210.405 211.358C208.644 207.918 209.868 203.766 213.138 202.105C216.408 200.444 220.489 201.858 222.249 205.294Z" fill="white"/>
<path d="M217.717 214.419C218.772 214.422 219.812 214.171 220.75 213.689C224.148 211.947 225.429 207.629 223.597 204.06C221.77 200.496 217.518 199.011 214.106 200.738C210.694 202.465 209.427 206.798 211.259 210.367C211.858 211.571 212.778 212.587 213.918 213.302C215.057 214.017 216.372 214.404 217.717 214.419ZM223.108 204.316C224.798 207.61 223.626 211.596 220.494 213.195C217.362 214.794 213.447 213.423 211.762 210.125C210.077 206.827 211.245 202.845 214.372 201.246C217.499 199.647 221.424 201.018 223.108 204.316Z" fill="#1B2E4E"/>
<path d="M186.748 185.415L183.697 185.197L183.355 181.737L186.331 181.139C186.456 179.875 186.819 178.645 187.399 177.514L185.306 175.141L187.446 172.545L190.042 174.306C191.015 173.537 192.131 172.967 193.326 172.631L193.411 169.494L196.766 169.28L197.464 172.37C198.722 172.56 199.934 172.983 201.037 173.618L203.253 171.553L205.863 173.855L204.259 176.456C205.046 177.492 205.642 178.66 206.02 179.906L209.076 180.124L209.413 183.583L206.437 184.181C206.312 185.446 205.95 186.676 205.37 187.807L207.467 190.179L205.336 192.78L202.741 191.019C201.766 191.787 200.65 192.356 199.457 192.695L199.371 195.831L196.016 196.045L195.319 192.956C194.051 192.772 192.829 192.352 191.717 191.717L189.496 193.781L186.886 191.48L188.509 188.87C187.724 187.83 187.128 186.661 186.748 185.415Z" fill="#FFA47F"/>
<path d="M197.663 194.654L201.018 194.441C201.086 194.436 201.15 194.406 201.197 194.357C201.245 194.308 201.272 194.243 201.274 194.175L201.36 191.238C202.45 190.904 203.473 190.382 204.383 189.695L206.808 191.342C206.865 191.381 206.935 191.397 207.004 191.386C207.072 191.376 207.135 191.34 207.178 191.285L209.308 188.689C209.35 188.639 209.373 188.575 209.373 188.509C209.373 188.443 209.35 188.38 209.308 188.329L207.334 186.103C207.85 185.048 208.185 183.914 208.326 182.748L211.102 182.193C211.169 182.179 211.229 182.141 211.269 182.086C211.309 182.03 211.328 181.962 211.32 181.894L210.984 178.434C210.977 178.369 210.948 178.308 210.901 178.262C210.854 178.216 210.793 178.188 210.727 178.183L207.88 177.979C207.509 176.831 206.956 175.749 206.243 174.776L207.752 172.337C207.786 172.281 207.799 172.216 207.79 172.151C207.78 172.087 207.748 172.028 207.7 171.985L205.09 169.684C205.038 169.638 204.971 169.613 204.902 169.613C204.833 169.613 204.767 169.638 204.715 169.684L202.646 171.61C201.611 171.042 200.488 170.652 199.324 170.457L198.669 167.553C198.654 167.489 198.617 167.432 198.564 167.392C198.511 167.353 198.445 167.335 198.38 167.34L195.029 167.548C194.96 167.553 194.895 167.583 194.847 167.633C194.798 167.683 194.77 167.749 194.768 167.819L194.688 170.756C193.597 171.088 192.573 171.61 191.665 172.299L189.235 170.652C189.178 170.613 189.108 170.598 189.04 170.607C188.972 170.617 188.909 170.651 188.865 170.704L186.739 173.305C186.695 173.353 186.671 173.417 186.671 173.483C186.671 173.548 186.695 173.612 186.739 173.661L188.708 175.891C188.191 176.944 187.858 178.076 187.721 179.241L184.945 179.796C184.877 179.809 184.817 179.847 184.775 179.902C184.734 179.958 184.715 180.027 184.722 180.095L185.064 183.56C185.069 183.625 185.098 183.686 185.146 183.731C185.193 183.776 185.255 183.803 185.32 183.806L188.167 184.01C188.534 185.16 189.085 186.242 189.8 187.214L188.295 189.653C188.26 189.708 188.246 189.775 188.255 189.84C188.265 189.906 188.298 189.965 188.348 190.009L190.958 192.305C191.008 192.353 191.074 192.379 191.143 192.379C191.211 192.379 191.278 192.353 191.328 192.305L193.397 190.384C194.431 190.952 195.554 191.34 196.719 191.532L197.411 194.436C197.424 194.495 197.455 194.548 197.5 194.588C197.546 194.627 197.603 194.651 197.663 194.654ZM200.748 193.905L197.9 194.085L197.255 191.238C197.244 191.183 197.216 191.133 197.175 191.095C197.134 191.057 197.082 191.032 197.027 191.024C195.804 190.84 194.626 190.43 193.553 189.814C193.502 189.784 193.443 189.772 193.384 189.778C193.325 189.783 193.27 189.808 193.226 189.847L191.19 191.746L188.946 189.767L190.426 187.365C190.459 187.32 190.476 187.265 190.476 187.209C190.476 187.153 190.459 187.098 190.426 187.052C189.659 186.041 189.078 184.902 188.708 183.688C188.693 183.634 188.661 183.587 188.618 183.552C188.575 183.517 188.522 183.497 188.466 183.493L185.619 183.289L185.325 180.309L188.053 179.763C188.112 179.753 188.166 179.724 188.206 179.68C188.246 179.636 188.271 179.58 188.276 179.521C188.398 178.289 188.75 177.092 189.316 175.991C189.341 175.941 189.351 175.885 189.344 175.83C189.338 175.775 189.314 175.724 189.278 175.682L187.337 173.49L189.159 171.269L191.532 172.887C191.58 172.921 191.637 172.939 191.696 172.939C191.754 172.939 191.811 172.921 191.859 172.887C192.805 172.14 193.888 171.587 195.048 171.259C195.105 171.244 195.156 171.21 195.192 171.163C195.228 171.115 195.248 171.058 195.248 170.998L195.328 168.113L198.175 167.933L198.821 170.78C198.835 170.834 198.864 170.883 198.905 170.921C198.947 170.959 198.998 170.984 199.053 170.994C200.277 171.174 201.456 171.585 202.527 172.204C202.578 172.234 202.637 172.247 202.695 172.24C202.753 172.233 202.808 172.207 202.85 172.166L204.886 170.268L207.154 172.261L205.669 174.633C205.637 174.68 205.621 174.734 205.621 174.79C205.621 174.846 205.637 174.9 205.669 174.947C206.44 175.955 207.022 177.095 207.386 178.311C207.403 178.364 207.436 178.412 207.48 178.446C207.524 178.481 207.577 178.502 207.633 178.506L210.457 178.705L210.746 181.685L208.018 182.231C207.96 182.242 207.907 182.272 207.868 182.315C207.829 182.359 207.804 182.414 207.799 182.473C207.675 183.704 207.323 184.901 206.76 186.003C206.734 186.053 206.724 186.11 206.731 186.166C206.737 186.222 206.761 186.274 206.798 186.317L208.734 188.509L206.917 190.725L204.544 189.107C204.496 189.073 204.439 189.054 204.38 189.054C204.321 189.054 204.264 189.073 204.216 189.107C203.271 189.854 202.187 190.407 201.028 190.735C200.972 190.751 200.923 190.785 200.887 190.831C200.851 190.877 200.831 190.933 200.828 190.991L200.748 193.905Z" fill="#1B2E4E"/>
<path d="M201.682 179.682C202.373 180.954 202.531 182.449 202.12 183.837C201.71 185.225 200.766 186.393 199.495 187.085C196.88 188.424 193.615 187.28 192.211 184.532C190.806 181.785 191.779 178.468 194.398 177.129C197.018 175.791 200.259 176.93 201.682 179.682Z" fill="white"/>
<path d="M198.266 186.81C199.117 186.813 199.957 186.611 200.714 186.222C201.374 185.884 201.957 185.415 202.428 184.844C202.9 184.272 203.25 183.611 203.457 182.9C203.889 181.42 203.734 179.831 203.026 178.463C201.55 175.582 198.109 174.386 195.362 175.791C194.702 176.129 194.119 176.598 193.647 177.169C193.176 177.74 192.826 178.402 192.619 179.113C192.189 180.593 192.345 182.182 193.055 183.55C193.54 184.52 194.283 185.337 195.202 185.912C196.122 186.487 197.182 186.798 198.266 186.81ZM197.815 175.739C198.797 175.753 199.757 176.036 200.588 176.558C201.42 177.081 202.093 177.822 202.532 178.7C203.177 179.941 203.318 181.382 202.926 182.724C202.743 183.367 202.43 183.965 202.006 184.482C201.583 184.999 201.057 185.423 200.463 185.728C197.986 187 194.882 185.908 193.549 183.298C192.902 182.058 192.761 180.616 193.155 179.274C193.439 178.257 194.048 177.361 194.89 176.722C195.731 176.084 196.759 175.738 197.815 175.739Z" fill="#1B2E4E"/>
<path d="M223.479 229.6C222.793 229.6 222.133 229.347 221.623 228.888C221.114 228.43 220.793 227.799 220.721 227.118L212.066 144.466C212.007 143.901 212.067 143.33 212.242 142.789C212.418 142.249 212.706 141.751 213.086 141.329C213.466 140.907 213.931 140.569 214.45 140.338C214.969 140.106 215.531 139.987 216.099 139.987H320.096C321.1 139.985 322.069 140.356 322.815 141.027C323.561 141.699 324.031 142.623 324.135 143.622L332.814 226.544C332.855 226.93 332.814 227.32 332.694 227.688C332.574 228.057 332.378 228.397 332.119 228.685C331.859 228.973 331.542 229.203 331.187 229.361C330.833 229.519 330.45 229.6 330.062 229.6H223.479Z" fill="#F2E6D6"/>
<path d="M212.065 144.466C212.006 143.901 212.067 143.33 212.242 142.789C212.418 142.249 212.705 141.751 213.086 141.329C213.466 140.907 213.931 140.569 214.45 140.338C214.969 140.106 215.531 139.987 216.099 139.987H320.096C321.1 139.985 322.069 140.356 322.815 141.027C323.561 141.699 324.031 142.623 324.135 143.622L324.927 151.191H212.768L212.065 144.466Z" fill="#1B2E4E"/>
<path d="M216.612 145.729C216.659 145.994 216.783 146.24 216.968 146.436C217.153 146.632 217.392 146.769 217.654 146.832C217.916 146.895 218.191 146.88 218.444 146.788C218.698 146.697 218.92 146.534 219.082 146.319C219.244 146.104 219.34 145.846 219.358 145.577C219.376 145.308 219.315 145.039 219.183 144.805C219.051 144.57 218.853 144.378 218.614 144.254C218.375 144.13 218.104 144.079 217.836 144.106C217.648 144.13 217.467 144.192 217.304 144.287C217.14 144.382 216.997 144.509 216.883 144.66C216.769 144.811 216.686 144.984 216.64 145.167C216.593 145.35 216.584 145.541 216.612 145.729ZM222.705 145.729C222.752 145.994 222.876 146.24 223.061 146.436C223.246 146.632 223.485 146.769 223.747 146.832C224.009 146.895 224.284 146.88 224.537 146.788C224.791 146.697 225.013 146.534 225.175 146.319C225.337 146.104 225.433 145.846 225.451 145.577C225.469 145.308 225.409 145.039 225.276 144.805C225.144 144.57 224.946 144.378 224.707 144.254C224.468 144.13 224.197 144.079 223.929 144.106C223.742 144.13 223.561 144.192 223.397 144.287C223.233 144.382 223.09 144.509 222.976 144.66C222.862 144.811 222.78 144.984 222.733 145.167C222.686 145.35 222.677 145.541 222.705 145.729ZM228.798 145.729C228.846 145.994 228.97 146.24 229.155 146.436C229.34 146.632 229.578 146.769 229.84 146.832C230.102 146.895 230.377 146.88 230.631 146.788C230.884 146.697 231.106 146.534 231.268 146.319C231.431 146.104 231.527 145.846 231.545 145.577C231.563 145.308 231.502 145.039 231.37 144.805C231.237 144.57 231.039 144.378 230.8 144.254C230.561 144.13 230.291 144.079 230.022 144.106C229.835 144.13 229.654 144.192 229.49 144.287C229.326 144.382 229.183 144.509 229.069 144.66C228.955 144.811 228.873 144.984 228.826 145.167C228.78 145.35 228.77 145.541 228.798 145.729Z" fill="white"/>
<path d="M263.986 164.943H304.161L303.62 162.333H263.445L263.986 164.943ZM254.851 170.035H294.385L293.84 167.42H254.31L254.851 170.035ZM274.73 174.918H306.002L305.456 172.303H274.189L274.73 174.918Z" fill="#5C94B9"/>
<path d="M244.743 174.918H271.507L270.962 172.303H244.202L244.743 174.918ZM257.214 180.005H293.403L292.857 177.395H256.673L257.214 180.005Z" fill="#F84558"/>
<path d="M242.845 185.097H301.456L300.915 182.482H242.299L242.845 185.097ZM247.595 190.393H308.868L308.327 187.783H247.054L247.595 190.393ZM266.097 195.48H300.488L299.942 192.87H265.556L266.097 195.48Z" fill="#5C94B9"/>
<path d="M238.018 195.48H263.331L262.785 192.87H237.477L238.018 195.48Z" fill="#F84558"/>
<path d="M283.509 200.363H310.71L310.164 197.753H282.963L283.509 200.363ZM244.178 200.363H280.699L280.158 197.753H243.637L244.178 200.363ZM269.79 215.482H304.175L303.634 212.868H269.244L269.79 215.482Z" fill="#5C94B9"/>
<path d="M241.71 215.482H267.018L266.477 212.868H241.17L241.71 215.482Z" fill="#F84558"/>
<path d="M287.196 220.365H314.397L313.856 217.751H286.655L287.196 220.365ZM247.865 220.365H284.391L283.85 217.751H247.325L247.865 220.365Z" fill="#5C94B9"/>
<path d="M268.394 205.455H299.871L299.33 202.84H267.853L268.394 205.455Z" fill="#F84558"/>
<path d="M256.013 210.542H306.999L306.458 207.932H255.472L256.013 210.542ZM239.888 223.445L239.656 222.32C239.113 222.415 238.553 222.322 238.071 222.055C237.633 221.685 237.355 221.162 237.292 220.593L236.685 217.656C236.426 216.39 235.81 215.628 234.839 215.368C235.698 215.098 235.997 214.339 235.736 213.081L235.124 210.144C234.977 209.418 235.029 208.929 235.299 208.687C235.57 208.445 236.054 208.35 236.77 208.421L236.538 207.296C235.497 207.201 234.754 207.391 234.308 207.866C233.861 208.34 233.748 209.1 233.966 210.144L234.573 213.072C234.72 213.779 234.673 214.239 234.44 214.462C234.049 214.73 233.574 214.85 233.102 214.799L233.335 215.919C233.849 215.883 234.362 215.998 234.811 216.251C235.213 216.61 235.466 217.106 235.522 217.641L236.135 220.579C236.262 221.474 236.723 222.287 237.425 222.857C238.142 223.357 239.022 223.567 239.888 223.445ZM312.352 172.602C312.798 172.128 312.911 171.368 312.693 170.324L312.086 167.387C311.939 166.68 311.986 166.22 312.219 165.997C312.61 165.727 313.085 165.608 313.557 165.66L313.324 164.535C312.811 164.571 312.297 164.455 311.849 164.203C311.446 163.844 311.193 163.348 311.137 162.812L310.525 159.875C310.396 158.979 309.935 158.164 309.234 157.592C308.512 157.098 307.631 156.895 306.766 157.023L307.003 158.148C307.547 158.049 308.107 158.143 308.588 158.413C309.026 158.783 309.304 159.306 309.367 159.875L309.974 162.812C310.233 164.078 310.849 164.84 311.82 165.1C310.961 165.37 310.662 166.129 310.923 167.387L311.535 170.324C311.687 171.05 311.625 171.539 311.36 171.781C311.094 172.023 310.605 172.118 309.884 172.047L310.121 173.172C311.16 173.267 311.901 173.077 312.352 172.602Z" fill="#5C94B9"/>
<path d="M427.989 353.808H435.473C435.473 353.808 456.04 350.553 451.294 310.828C450.998 308.327 450.015 305.956 448.454 303.979C446.894 302.002 444.817 300.494 442.453 299.624C431.283 295.562 408.509 288.918 378.712 288.918C378.712 288.918 378.413 288.942 377.925 289.032C404.437 289.92 424.667 295.866 434.97 299.624C437.334 300.494 439.411 302.002 440.971 303.979C442.531 305.956 443.514 308.327 443.811 310.828C448.575 350.553 427.989 353.808 427.989 353.808Z" fill="#D3C8BC"/>
<path d="M427.989 354.221H435.535C435.753 354.188 440.897 353.314 445.5 347.478C449.7 342.139 454.184 331.443 451.707 310.776C451.407 308.197 450.396 305.752 448.787 303.714C447.179 301.676 445.035 300.125 442.596 299.235C431.582 295.225 408.637 288.501 378.712 288.501C378.66 288.501 378.352 288.534 377.853 288.624L374.057 289.322L377.896 289.45C404.665 290.342 425.042 296.454 434.808 300.013C437.104 300.852 439.121 302.311 440.635 304.229C442.15 306.147 443.101 308.448 443.384 310.876C445.823 331.205 441.485 341.693 437.39 346.908C432.996 352.527 427.961 353.395 427.899 353.4L427.989 354.221ZM435.435 353.39H430.609C433.524 352.056 436.065 350.024 438.007 347.473C442.207 342.134 446.691 331.438 444.209 310.771C443.912 308.192 442.902 305.746 441.294 303.708C439.686 301.67 437.542 300.12 435.103 299.23C422.747 294.835 409.951 291.794 396.94 290.162C417.777 292.084 433.693 296.881 442.297 300.009C444.592 300.847 446.609 302.306 448.122 304.225C449.636 306.143 450.586 308.444 450.867 310.871C453.306 331.201 448.969 341.688 444.874 346.903C440.664 352.299 435.853 353.314 435.435 353.39Z" fill="#1B2E4E"/>
<path d="M362.174 309.001C368.467 327.879 374.892 343.828 374.892 343.828C374.892 343.828 377.958 353.794 390.386 353.794H397.889C385.456 353.794 382.385 343.828 382.385 343.828C382.385 343.828 375.941 327.879 369.658 309.001C364.239 292.753 374.878 289.588 377.92 289.028C375.732 288.947 373.497 288.914 371.224 288.914C371.224 288.914 355.887 290.138 362.174 309.001Z" fill="#F0E3DD"/>
<path d="M428.098 354.729C428.976 354.591 449.519 350.871 444.708 310.714C444.399 308.039 443.352 305.502 441.683 303.388C440.015 301.275 437.79 299.667 435.259 298.746C424.226 294.722 401.234 287.974 371.195 287.974H371.096C370.844 287.974 364.927 288.52 361.695 293.427C359.156 297.266 359 302.604 361.22 309.295C367.48 327.983 373.943 344.047 373.976 344.108C374.01 344.17 377.398 354.738 390.367 354.738H428.041L428.098 354.729ZM434.609 300.502C436.817 301.304 438.757 302.706 440.211 304.551C441.666 306.395 442.577 308.608 442.843 310.942C447.313 348.147 429.047 352.626 427.866 352.878H390.377C378.821 352.878 375.889 343.942 375.746 343.487C375.68 343.33 369.24 327.352 363.028 308.717C360.993 302.604 361.073 297.802 363.271 294.48C365.89 290.503 370.802 289.891 371.243 289.849C400.959 289.849 423.699 296.521 434.609 300.502ZM241.027 266.828C241.027 266.828 243.158 255.306 253.052 255.306C264.043 255.306 268.874 261.789 271.522 266.738L241.027 266.828ZM377.208 430.357C377.208 430.357 382.157 432.35 390.785 418.085C399.412 403.821 398.264 390.239 392.398 385.408C386.533 380.577 374.446 396.456 370.768 406.35C367.091 416.244 365.472 432.16 377.208 430.357Z" fill="#1B2E4E"/>
<path d="M376.634 402.497C384.744 404.599 392.218 410.806 396.299 422.162C397.723 426.119 399.422 429.925 398.548 434.286C397.789 438.083 394.752 441.438 392.009 443.222C391.122 443.796 391.122 444.76 392.18 444.755C395.976 444.722 401.576 444.684 405.325 444.684C411.494 444.684 418.831 441.172 416.776 432.227C414.721 423.282 416.14 416.567 418.541 406.824C420.942 397.082 417.592 390.396 406.924 388.616C403.095 387.985 396.878 387.525 394.221 386.538C392.674 385.963 387.957 383.145 386.875 382.494C386.875 382.485 370.19 393.399 376.634 402.497Z" fill="#F84558"/>
<path d="M401.135 431.596C402.496 423.842 401.533 415.722 401.135 412.016C400.66 407.745 398.453 401.547 400.66 395.658C403.294 388.573 407.484 388.768 407.883 388.839C417.668 390.476 420.89 397.424 418.56 406.872C416.149 416.605 414.764 423.329 416.795 432.274C418.826 441.22 411.508 444.731 405.334 444.731C402.487 444.731 397.988 444.731 394.576 444.774C394.341 444.773 394.113 444.699 393.921 444.563C393.73 444.426 393.586 444.234 393.509 444.012C393.432 443.79 393.426 443.55 393.491 443.324C393.556 443.098 393.69 442.899 393.874 442.752C396.474 440.721 400.133 437.248 401.135 431.596Z" fill="white"/>
<path d="M394.553 445.097C397.965 445.073 402.468 445.049 405.311 445.049C409.629 445.049 413.468 443.474 415.575 440.83C417.378 438.562 417.891 435.653 417.098 432.184C415.086 423.41 416.425 416.795 418.859 406.938C420.15 401.718 419.723 397.277 417.62 394.078C415.689 391.136 412.424 389.261 407.916 388.507C407.873 388.507 403.199 387.809 400.323 395.54C398.634 400.086 399.526 404.841 400.242 408.656C400.47 409.876 400.684 411.029 400.798 412.049L400.84 412.467C401.253 416.263 402.107 424.112 400.798 431.539C400.053 435.767 397.713 439.345 393.646 442.453C393.406 442.642 393.23 442.901 393.143 443.194C393.056 443.487 393.063 443.799 393.162 444.089C393.261 444.378 393.448 444.629 393.696 444.807C393.945 444.985 394.242 445.081 394.548 445.082L394.553 445.097ZM407.607 389.157H407.816C412.13 389.883 415.243 391.658 417.07 394.439C419.063 397.476 419.443 401.737 418.218 406.777C415.755 416.742 414.422 423.415 416.453 432.331C417.203 435.596 416.733 438.315 415.058 440.399C413.079 442.88 409.439 444.366 405.32 444.366C402.473 444.366 397.974 444.39 394.557 444.413C394.389 444.416 394.224 444.365 394.087 444.266C393.951 444.168 393.849 444.028 393.798 443.868C393.741 443.711 393.736 443.541 393.784 443.382C393.832 443.223 393.93 443.084 394.064 442.985C398.268 439.753 400.708 436.042 401.467 431.638C402.791 424.117 401.941 416.192 401.519 412.381L401.472 411.964C401.358 410.915 401.139 409.752 400.912 408.519C400.209 404.784 399.336 400.133 400.964 395.758C403.265 389.57 406.734 389.157 407.607 389.157Z" fill="#1B2E4E"/>
<path d="M403.574 431.596C404.941 423.842 403.977 415.722 403.574 412.016C403.099 407.745 400.893 401.547 403.099 395.658C405.738 388.573 409.923 388.768 410.327 388.839C420.112 390.476 423.334 397.424 420.999 406.872C418.593 416.605 417.203 423.329 419.239 432.274C421.274 441.22 413.952 444.731 407.774 444.731C404.627 444.731 399.45 444.731 395.967 444.76C395.8 444.762 395.637 444.711 395.5 444.614C395.364 444.517 395.263 444.38 395.21 444.221C395.157 444.063 395.156 443.892 395.207 443.733C395.257 443.573 395.357 443.435 395.492 443.336C398.088 441.438 402.468 437.869 403.574 431.596Z" fill="white"/>
<path d="M395.948 445.082C399.431 445.082 404.608 445.049 407.759 445.049C412.078 445.049 415.917 443.474 418.019 440.83C419.827 438.562 420.34 435.653 419.547 432.184C417.535 423.41 418.869 416.79 421.308 406.938C422.598 401.718 422.167 397.276 420.069 394.078C418.133 391.136 414.849 389.261 410.36 388.507C410.317 388.507 405.648 387.804 402.767 395.54C401.078 400.086 401.97 404.841 402.682 408.656C402.914 409.876 403.128 411.029 403.237 412.049L403.284 412.467C403.693 416.263 404.547 424.107 403.242 431.539C402.198 437.456 398.202 440.94 395.284 443.047C395.091 443.186 394.948 443.383 394.874 443.609C394.8 443.835 394.8 444.078 394.873 444.304C394.946 444.53 395.089 444.728 395.282 444.867C395.474 445.007 395.705 445.082 395.943 445.082H395.948ZM410.051 389.157C410.119 389.153 410.188 389.153 410.256 389.157C414.574 389.883 417.687 391.658 419.514 394.439C421.507 397.476 421.887 401.737 420.662 406.777C418.199 416.742 416.866 423.414 418.897 432.331C419.642 435.596 419.172 438.311 417.502 440.399C415.523 442.88 411.883 444.366 407.764 444.366C404.613 444.366 399.436 444.366 395.948 444.399C395.857 444.389 395.771 444.354 395.7 444.296C395.63 444.239 395.577 444.162 395.548 444.076C395.52 443.989 395.517 443.896 395.54 443.808C395.562 443.72 395.61 443.64 395.677 443.578C398.691 441.4 402.819 437.798 403.906 431.638C405.23 424.117 404.381 416.187 403.954 412.377L403.911 411.964C403.797 410.915 403.579 409.752 403.346 408.518C402.649 404.784 401.775 400.133 403.403 395.758C405.709 389.575 409.178 389.157 410.051 389.157Z" fill="#1B2E4E"/>
<path d="M418.997 401.049C418.997 406.075 415.827 410.146 411.912 410.146C407.997 410.146 404.831 406.075 404.831 401.049C404.831 396.024 408.001 391.947 411.912 391.947C415.822 391.947 418.997 396.019 418.997 401.049Z" fill="#D3C8BC"/>
<path d="M399.829 408.708C392.479 399.744 393.475 393.523 394.244 391.283C394.989 389.105 396.474 387.515 398.131 387.131L398.339 388.042C397.02 388.346 395.758 389.736 395.127 391.582C394.41 393.689 393.499 399.516 400.551 408.12L399.829 408.708Z" fill="#1B2E4E"/>
<path d="M395.174 419.025C393.532 417.283 392.802 415.381 393.01 413.373C393.442 409.102 397.884 405.951 398.074 405.818L398.62 406.597C398.577 406.63 394.349 409.657 393.95 413.482C393.775 415.21 394.425 416.866 395.848 418.399L395.174 419.025Z" fill="#1B2E4E"/>
<path d="M391.976 414.46C390.552 412.562 390.035 410.635 390.419 408.694C391.169 404.865 395.165 402.435 395.317 402.335L395.791 403.137C395.753 403.161 391.995 405.458 391.326 408.874C391.003 410.545 391.468 412.239 392.716 413.9L391.976 414.46Z" fill="#1B2E4E"/>
<path d="M354.425 328.339C362.554 337.175 368.543 344.521 379.742 370.223C382.917 377.502 391.824 384.986 391.824 384.986C386.557 382.338 355.023 430.006 377.208 430.357C377.208 430.357 361.41 433.679 342.538 411.793C323.665 389.907 314.387 338.461 316.229 326.963C318.07 315.465 340.279 312.912 354.425 328.339Z" fill="#5C94B9"/>
<path d="M387.316 380.696C389.788 383.277 391.824 384.967 391.824 384.967C386.557 382.319 355.023 429.987 377.208 430.338C377.208 430.338 361.41 433.66 342.538 411.774C334.67 402.658 328.467 388.388 324.03 374.019C322.981 370.593 348.55 410.958 387.316 380.696Z" fill="#4B83A8"/>
<path d="M316.229 326.963C318.07 315.455 340.279 312.916 354.425 328.344C360.048 334.47 364.666 339.89 370.697 351.203C369.615 351.274 368.234 351.388 367.598 351.407C365.352 351.482 363.115 351.718 360.903 352.114C353.732 353.338 347.777 357.334 344.232 363.788C336.758 377.388 344.588 393.988 353.452 404.675C358.15 410.331 363.75 414.925 369.724 419.044C368.576 425.46 370.246 430.234 377.208 430.343C377.208 430.343 361.41 433.665 342.538 411.779C323.665 389.893 314.387 338.461 316.229 326.963Z" fill="#4B83A8"/>
<path d="M388.749 351.217C398.268 351.217 419.732 349.656 432.825 336.606C440.697 328.757 444.176 318.008 443.156 304.659C440.522 269.97 439.948 260.052 439.44 251.277C439.207 247.22 438.965 243.386 438.586 237.473C437.703 224.484 434.315 211.847 429.028 201.82C423.965 192.234 417.82 186.431 412.168 185.894C405.254 185.239 401.158 186.843 394.377 189.487C392.147 190.355 389.631 191.342 386.59 192.41C382.339 193.933 378.374 196.158 374.859 198.992C373.952 199.542 373.076 200.141 372.235 200.786C362.62 208.179 334.508 239.148 333.322 240.462L333.028 240.79L333.127 241.217C336.297 254.462 343.093 265.965 353.386 275.413C350.714 281.145 346.244 283.006 342.286 284.648C338.85 286.071 335.609 287.419 334.537 291.068L334.38 291.59L334.798 291.941C335.101 292.193 365.278 317.666 383.334 350.647L383.548 351.041L383.994 351.075C384.279 351.089 386.025 351.217 388.749 351.217ZM409.154 187.399C410.051 187.399 410.986 187.446 412.002 187.541C422.228 188.49 435.055 210.115 436.92 237.577C437.319 243.481 437.542 247.31 437.774 251.363C438.277 260.132 438.852 270.069 441.49 304.773C442.468 317.624 439.155 327.936 431.648 335.424C416.42 350.61 388.417 349.66 384.554 349.437C367.522 318.544 340.07 294.295 336.288 291.03C337.289 288.525 339.776 287.466 342.917 286.152C347.069 284.424 352.242 282.28 355.151 275.503L355.383 274.957L354.947 274.559C344.787 265.362 338.024 254.153 334.84 241.226C337.939 237.824 364.262 208.957 373.245 202.076C374.054 201.458 374.895 200.883 375.765 200.354L375.851 200.297C379.232 197.563 383.048 195.416 387.14 193.947C390.201 192.87 392.74 191.878 394.98 191.005C400.712 188.784 404.267 187.399 409.173 187.399H409.154ZM319.237 430.357C319.237 430.357 324.187 432.35 332.814 418.085C341.441 403.821 340.293 390.239 334.427 385.408C328.562 380.577 316.475 396.456 312.798 406.35C309.12 416.244 307.506 432.16 319.237 430.357Z" fill="#1B2E4E"/>
<path d="M318.663 402.497C326.773 404.599 334.247 410.806 338.328 422.162C339.752 426.119 341.451 429.925 340.578 434.286C339.818 438.083 336.781 441.438 334.038 443.222C333.151 443.796 333.151 444.76 334.209 444.755C338.006 444.722 343.605 444.684 347.354 444.684C353.523 444.684 360.86 441.172 358.81 432.227C356.76 423.282 358.169 416.567 360.57 406.824C362.972 397.082 359.621 390.396 348.953 388.616C345.124 387.985 338.907 387.525 336.25 386.538C334.703 385.963 329.991 383.145 328.904 382.494C328.904 382.485 312.219 393.399 318.663 402.497Z" fill="#F84558"/>
<path d="M343.164 431.596C344.526 423.842 343.562 415.722 343.164 412.016C342.689 407.745 340.483 401.547 342.689 395.658C345.323 388.573 349.509 388.768 349.912 388.839C359.697 390.476 362.919 397.424 360.589 406.872C358.178 416.605 356.793 423.329 358.824 432.274C360.855 441.22 353.537 444.717 347.368 444.717C344.521 444.717 340.022 444.717 336.61 444.76C336.377 444.76 336.149 444.689 335.958 444.555C335.766 444.421 335.621 444.231 335.542 444.011C335.462 443.792 335.452 443.553 335.514 443.328C335.575 443.102 335.704 442.901 335.884 442.752C338.504 440.721 342.148 437.248 343.164 431.596Z" fill="white"/>
<path d="M336.582 445.097C339.994 445.073 344.497 445.049 347.34 445.049C351.663 445.049 355.497 443.474 357.604 440.83C359.408 438.562 359.925 435.653 359.128 432.184C357.116 423.41 358.454 416.79 360.888 406.938C362.179 401.718 361.752 397.276 359.65 394.078C357.718 391.136 354.453 389.261 349.945 388.507C349.898 388.507 345.228 387.804 342.352 395.54C340.658 400.086 341.55 404.836 342.267 408.656C342.495 409.876 342.708 411.029 342.822 412.049L342.865 412.452C343.278 416.249 344.132 424.103 342.822 431.539C342.077 435.767 339.738 439.345 335.671 442.453C335.43 442.642 335.254 442.901 335.168 443.194C335.081 443.487 335.088 443.799 335.187 444.088C335.286 444.378 335.473 444.629 335.721 444.807C335.969 444.985 336.267 445.081 336.572 445.082L336.582 445.097ZM349.637 389.157H349.846C354.159 389.883 357.272 391.658 359.099 394.439C361.092 397.476 361.472 401.737 360.248 406.777C357.785 416.742 356.451 423.414 358.482 432.331C359.232 435.596 358.762 438.311 357.087 440.399C355.108 442.88 351.468 444.366 347.349 444.366C344.502 444.366 340.003 444.389 336.587 444.413C336.418 444.416 336.253 444.364 336.117 444.266C335.98 444.168 335.878 444.028 335.827 443.867C335.77 443.711 335.765 443.541 335.813 443.382C335.861 443.223 335.959 443.083 336.093 442.985C340.298 439.753 342.737 436.042 343.496 431.638C344.825 424.107 343.971 416.178 343.544 412.367L343.501 411.964C343.387 410.915 343.169 409.748 342.941 408.518C342.239 404.779 341.365 400.133 342.993 395.758C345.295 389.57 348.764 389.157 349.637 389.157Z" fill="#1B2E4E"/>
<path d="M345.603 431.596C346.97 423.842 346.006 415.722 345.603 412.016C345.129 407.745 342.917 401.547 345.129 395.658C347.767 388.573 351.953 388.768 352.356 388.839C362.141 390.476 365.363 397.424 363.028 406.872C360.623 416.605 359.232 423.329 361.268 432.274C363.304 441.22 355.981 444.731 349.803 444.731C346.657 444.731 341.479 444.731 337.996 444.76C337.829 444.762 337.666 444.711 337.53 444.614C337.394 444.517 337.292 444.38 337.239 444.221C337.186 444.063 337.185 443.892 337.236 443.733C337.287 443.573 337.387 443.435 337.522 443.336C340.117 441.438 344.497 437.869 345.603 431.596Z" fill="white"/>
<path d="M337.977 445.082C341.465 445.082 346.638 445.049 349.789 445.049C354.107 445.049 357.946 443.474 360.048 440.83C361.856 438.562 362.369 435.653 361.576 432.184C359.564 423.41 360.898 416.79 363.337 406.938C364.628 401.718 364.196 397.276 362.098 394.078C360.162 391.136 356.878 389.261 352.394 388.507C352.347 388.507 347.677 387.804 344.801 395.54C343.112 400.086 344.004 404.841 344.721 408.661C344.948 409.876 345.162 411.034 345.276 412.049L345.318 412.462C345.727 416.258 346.586 424.107 345.276 431.539C344.232 437.456 340.231 440.94 337.318 443.047C337.125 443.186 336.982 443.383 336.908 443.609C336.834 443.835 336.834 444.078 336.907 444.304C336.98 444.53 337.123 444.728 337.316 444.867C337.508 445.007 337.74 445.082 337.977 445.082ZM352.081 389.157C352.149 389.153 352.217 389.153 352.285 389.157C356.603 389.883 359.716 391.658 361.543 394.439C363.536 397.476 363.916 401.737 362.692 406.777C360.229 416.742 358.895 423.414 360.926 432.331C361.671 435.596 361.206 438.311 359.531 440.399C357.552 442.88 353.913 444.366 349.793 444.366C346.642 444.366 341.465 444.366 337.977 444.399C337.881 444.401 337.787 444.372 337.709 444.315C337.631 444.258 337.573 444.178 337.545 444.086C337.513 443.995 337.512 443.895 337.542 443.804C337.572 443.712 337.631 443.632 337.711 443.578C340.72 441.4 344.83 437.798 345.935 431.638C347.259 424.112 346.41 416.187 345.988 412.377L345.94 411.964C345.826 410.915 345.608 409.752 345.375 408.523C344.678 404.784 343.805 400.133 345.432 395.758C347.739 389.57 351.208 389.157 352.081 389.157Z" fill="#1B2E4E"/>
<path d="M361.026 401.049C361.026 406.075 357.856 410.146 353.946 410.146C350.035 410.146 346.861 406.075 346.861 401.049C346.861 396.024 350.031 391.947 353.946 391.947C357.861 391.947 361.026 396.019 361.026 401.049Z" fill="#D3C8BC"/>
<path d="M341.859 408.708C334.508 399.744 335.505 393.523 336.274 391.283C337.019 389.105 338.509 387.515 340.16 387.131L340.369 388.042C339.05 388.346 337.787 389.736 337.156 391.582C336.454 393.689 335.505 399.516 342.58 408.11L341.859 408.708Z" fill="#1B2E4E"/>
<path d="M337.204 419.025C335.562 417.283 334.831 415.381 335.04 413.373C335.472 409.102 339.913 405.951 340.103 405.818L340.639 406.582C340.597 406.616 336.368 409.643 335.97 413.468C335.794 415.195 336.444 416.852 337.868 418.384L337.204 419.025Z" fill="#1B2E4E"/>
<path d="M334.024 414.46C332.6 412.562 332.088 410.635 332.472 408.694C333.222 404.865 337.218 402.435 337.37 402.335L337.844 403.137C337.806 403.161 334.048 405.458 333.379 408.874C333.056 410.545 333.521 412.239 334.769 413.9L334.024 414.46Z" fill="#1B2E4E"/>
<path d="M319.033 358.497C320.808 366.241 334.94 384.122 334.94 384.122C329.677 381.474 297.057 430.025 319.237 430.376C319.237 430.376 303.435 433.698 284.567 411.812C265.699 389.926 256.417 338.461 258.258 326.963C260.099 315.465 311.948 327.604 319.033 358.497Z" fill="#5C94B9"/>
<path d="M334.333 383.325L334.94 384.103C329.677 381.455 297.057 430.006 319.237 430.357C319.237 430.357 303.435 433.679 284.567 411.793C273.012 398.411 265.053 373.919 261.039 354.306C273.339 382.485 316.523 383.572 334.333 383.325Z" fill="#4B83A8"/>
<path d="M393.281 348.536C382.959 352 364.186 350.216 344.716 350.216C325.245 350.216 287.295 352.745 276.011 347.672C267.972 344.056 249.574 331.851 262.405 314.373C275.237 296.896 375.257 285.008 386.542 284.567C397.827 284.126 420.923 339.239 393.281 348.536Z" fill="#5C94B9"/>
<path d="M384.15 329.364L383.576 327.589L384.445 327.3L385.047 329.065C385.047 329.065 384.739 329.174 384.15 329.364ZM308.403 409.501C307.9 409.15 307.407 408.794 306.918 408.424L305.793 409.918C306.303 410.298 306.815 410.668 307.331 411.029L308.403 409.501ZM304.763 406.715C304.289 406.321 303.814 405.918 303.373 405.51L302.13 406.905C302.604 407.323 303.079 407.74 303.553 408.144L304.763 406.715ZM301.361 403.631C300.924 403.204 300.493 402.767 300.07 402.326L298.727 403.621C299.164 404.096 299.605 404.523 300.056 404.964L301.361 403.631ZM298.196 400.309C297.792 399.834 297.389 399.383 296.99 398.909L295.567 400.114C295.975 400.589 296.388 401.063 296.805 401.538L298.196 400.309ZM295.249 396.759C294.869 396.285 294.499 395.786 294.129 395.293L292.634 396.403C293.009 396.911 293.389 397.414 293.778 397.908L295.249 396.759ZM292.515 393.044C292.164 392.536 291.823 392.023 291.481 391.511L289.924 392.545C290.271 393.067 290.627 393.585 290.983 394.102L292.515 393.044ZM289.991 389.181C289.663 388.659 289.345 388.127 289.042 387.601L287.438 388.55C287.756 389.091 288.078 389.627 288.387 390.158L289.991 389.181ZM287.656 385.199C287.359 384.661 287.066 384.12 286.778 383.576L285.127 384.454C285.421 385.005 285.72 385.55 286.024 386.101L287.656 385.199ZM285.516 381.118C285.241 380.565 284.97 380.009 284.704 379.453L283.02 380.259C283.29 380.824 283.561 381.384 283.841 381.949L285.516 381.118ZM283.542 376.937C283.29 376.373 283.067 375.808 282.801 375.239L281.084 375.974C281.33 376.548 281.558 377.122 281.833 377.697L283.542 376.937ZM281.743 372.667C281.515 372.092 281.269 371.518 281.069 370.944L279.328 371.608C279.546 372.187 279.774 372.771 280.006 373.359L281.743 372.667ZM280.116 368.334C279.907 367.75 279.707 367.167 279.513 366.588L277.743 367.181C277.942 367.774 278.146 368.362 278.355 368.96L280.116 368.334ZM278.663 363.949C278.478 363.351 278.303 362.763 278.132 362.174L276.338 362.696C276.514 363.294 276.694 363.897 276.879 364.5L278.663 363.949ZM277.392 359.503C277.235 358.9 277.083 358.302 276.917 357.714L275.104 358.155C275.251 358.758 275.403 359.365 275.579 359.977L277.392 359.503ZM276.319 355.013C276.186 354.401 276.063 353.794 275.949 353.201L274.117 353.556C274.231 354.159 274.359 354.776 274.492 355.398L276.319 355.013ZM275.474 350.477C275.375 349.855 275.289 349.248 275.209 348.654L273.358 348.896C273.439 349.504 273.529 350.126 273.628 350.766L275.474 350.477ZM274.914 345.916C274.862 345.285 274.824 344.678 274.796 344.089L272.931 344.17C272.959 344.782 273.002 345.413 273.054 346.068L274.914 345.916ZM274.914 339.586L273.059 339.368C272.988 339.965 272.94 340.616 272.917 341.299L274.782 341.37C274.801 340.725 274.843 340.136 274.91 339.591L274.914 339.586ZM316.978 340.06V338.191H315.123V340.056H316.997L316.978 340.06ZM312.318 338.162H310.463L310.43 340.027L312.299 340.056L312.318 338.162ZM321.653 339.965L321.605 338.096L319.75 338.134L319.778 340.003L321.653 339.965ZM307.677 338.067L305.822 338.006L305.751 339.871L307.649 339.932L307.677 338.067ZM326.322 339.809L326.246 337.944L324.391 338.01L324.452 339.875L326.322 339.809ZM303.041 337.887C302.419 337.858 301.798 337.825 301.185 337.787L301.076 339.652C301.698 339.69 302.32 339.723 302.946 339.752L303.041 337.887ZM330.992 339.586L330.887 337.726L329.032 337.821L329.122 339.685C329.744 339.676 330.365 339.643 330.987 339.605L330.992 339.586ZM298.409 337.607C297.788 337.564 297.171 337.512 296.563 337.465L296.402 339.325L298.276 339.472L298.409 337.607ZM335.652 339.301L335.514 337.441L333.663 337.569L333.787 339.434L335.652 339.301ZM340.317 338.917L340.136 337.057L338.361 337.218H338.262L338.494 339.069C339.102 339.035 339.709 338.978 340.317 338.921V338.917ZM293.811 337.218C293.185 337.156 292.572 337.085 291.97 337.019L291.751 338.869C292.364 338.945 292.985 339.012 293.616 339.073L293.811 337.218ZM344.996 338.39L344.754 336.539L342.917 336.762L343.135 338.618C343.738 338.547 344.36 338.471 344.996 338.39ZM289.217 336.667C288.596 336.577 287.988 336.482 287.395 336.387L287.096 338.229C287.699 338.328 288.32 338.423 288.956 338.513L289.217 336.667ZM349.627 337.721L349.338 335.875L347.506 336.155L347.781 338.001L349.627 337.721ZM284.676 335.894C284.059 335.77 283.461 335.642 282.887 335.505L282.46 337.322C283.053 337.46 283.67 337.597 284.311 337.726L284.676 335.894ZM354.226 336.928L353.893 335.092L352.066 335.419L352.384 337.261L354.226 336.928ZM276.186 335.903L274.957 334.48C274.391 335.011 273.965 335.672 273.714 336.406L275.455 337.075C275.607 336.634 275.857 336.234 276.186 335.903ZM280.225 334.793C279.617 334.608 279.043 334.413 278.521 334.209L277.852 335.956C278.412 336.169 279.029 336.383 279.674 336.582L280.225 334.793ZM358.819 336.031L358.44 334.204L356.622 334.57L356.983 336.402C357.603 336.285 358.216 336.161 358.824 336.031H358.819ZM363.399 335.03L362.981 333.213L361.168 333.616L361.572 335.438C362.188 335.315 362.796 335.177 363.399 335.03ZM367.949 333.948L367.499 332.135C366.91 332.283 366.308 332.43 365.695 332.572L366.132 334.39L367.949 333.948ZM372.481 332.781L372.007 330.978L370.213 331.452L370.688 333.26L372.481 332.781ZM376.99 331.533L376.477 329.739L374.683 330.247L375.186 332.045L376.99 331.533ZM381.479 330.199L380.928 328.42L379.149 328.956L379.685 330.759C380.335 330.56 380.933 330.38 381.479 330.209V330.199ZM310.477 413.055C310.207 412.899 309.936 412.732 309.666 412.581L310.648 410.958C310.904 411.119 311.17 411.276 311.431 411.432L310.477 413.055Z" fill="white"/>
<path d="M381.882 145.392C397.946 142.25 408.091 148.827 409.406 156.102C410.55 162.499 409.784 169.091 407.204 175.056C407.206 175.07 407.206 175.084 407.204 175.098L413.848 190.227C408.234 199.191 395.008 195.85 395.008 195.85L391.976 186.663C390.514 187.261 389.295 187.612 388.535 187.579C382.333 187.399 374.921 171.259 374.503 163.258C374.142 156.126 373.563 147.019 381.882 145.392Z" fill="#FFA47F"/>
<path d="M378.622 152.273C379.49 152.519 382.134 153.094 382.134 153.094C382.134 153.094 383.771 159.301 385.076 161.507C386.381 163.714 384.843 174.425 378.551 174.975C372.258 175.525 378.242 180.622 378.94 182.568C379.932 185.368 379.035 187.892 384.796 188.993C388.635 189.729 395.089 185.164 391.819 179.773C388.55 174.382 385.731 168.929 388.834 161.982C391.938 155.035 389.309 169.826 397.984 173.665C406.658 177.504 409.017 179.142 409.017 179.142C409.017 179.142 409.216 175.611 410.44 173.547C414.488 166.822 416.311 161.033 415.006 150.982C413.701 140.931 408.632 138.236 399.478 137.827C390.324 137.419 389.897 140.812 384.136 138.511C377.07 135.664 374.038 141.102 368.951 140.006C368.946 140.02 370.664 150.028 378.622 152.273Z" fill="#1B2E4E"/>
<path d="M386.865 193.183C371.001 198.759 352.868 218.135 356.28 254.357C359.692 290.579 338.276 281.264 335.329 291.296C335.329 291.296 365.7 316.727 384.056 350.239C384.056 350.239 446.164 355.16 442.33 304.711C438.496 254.262 439.041 256.44 437.755 237.52C435.895 210.049 422.94 187.74 412.092 186.71C403.151 185.866 399.094 188.87 386.865 193.183Z" fill="#F2E6D6"/>
<path d="M386.865 193.183C371.001 198.759 352.868 218.135 356.28 254.357C358.838 281.525 347.435 283.077 340.326 286.384C337.953 287.49 389.769 289.232 423.173 342.694C434.69 336.406 443.877 325.069 442.33 304.73C438.496 254.281 439.041 256.459 437.755 237.539C435.895 210.068 422.94 187.759 412.092 186.729C403.151 185.866 399.094 188.87 386.865 193.183Z" fill="#FEF8EC"/>
<path d="M398.62 167.43C397.637 170.666 394.595 172.607 391.824 171.767C389.053 170.927 387.596 167.619 388.578 164.383C389.56 161.147 392.602 159.206 395.374 160.046C398.145 160.886 399.597 164.193 398.62 167.43Z" fill="#FFA47F"/>
<path d="M392.004 169.964C391.872 169.963 391.74 169.94 391.615 169.897C390.733 169.608 390.244 168.383 390.192 168.246L391.065 167.914C391.183 168.222 391.539 168.891 391.909 169.01C391.964 169.028 392.022 169.031 392.079 169.02C392.135 169.01 392.188 168.985 392.232 168.948C392.512 168.768 392.512 168.644 392.46 168.146C392.386 167.74 392.404 167.323 392.514 166.925C392.625 166.527 392.823 166.159 393.096 165.849C393.556 165.334 394.125 164.927 394.761 164.658C395.511 164.293 395.711 164.207 395.45 163.401C395.416 163.274 395.357 163.155 395.275 163.052C395.193 162.949 395.091 162.864 394.975 162.803C394.13 162.357 392.55 162.694 392.009 162.86L391.729 161.972C391.824 161.939 394.05 161.256 395.412 161.972C395.641 162.089 395.843 162.252 396.006 162.45C396.17 162.648 396.29 162.878 396.361 163.125C396.835 164.696 395.957 165.119 395.189 165.498C394.671 165.71 394.208 166.034 393.831 166.447C393.639 166.661 393.501 166.918 393.427 167.196C393.354 167.474 393.348 167.766 393.409 168.047C393.461 168.578 393.532 169.238 392.754 169.731C392.533 169.881 392.272 169.962 392.004 169.964Z" fill="#1B2E4E"/>
<path d="M240.23 263.226C240.126 261.831 244.975 260.569 247.756 254.044C250.537 247.519 252.293 250.945 258.263 249.175C264.233 247.405 265.343 246.076 270.212 250.722C275.081 255.368 276.856 255.591 280.059 254.704C283.262 253.816 330.75 239.518 345.105 240.083C359.46 240.648 381.697 273.173 357.809 281.672C324.752 293.45 279.28 264.138 266.98 266.985C266.98 266.985 261.229 266.211 259.9 261.399C258.571 256.588 252.986 259.027 251.88 261.343C250.774 263.658 251.88 266.71 249.446 266.6C247.011 266.491 247.011 262.78 247.011 262.78C247.011 262.78 240.406 265.552 240.23 263.226Z" fill="#FFA47F"/>
<path d="M240.23 263.226C240.145 262.031 243.704 260.93 246.461 256.531C270.577 254.5 305.528 283.447 357.832 281.682C324.775 293.46 279.304 264.147 267.004 266.994C267.004 266.994 261.252 266.221 259.924 261.409C258.595 256.597 253.01 259.036 251.904 261.352C250.798 263.668 251.904 266.719 249.469 266.61C247.035 266.501 247.035 262.79 247.035 262.79C247.035 262.79 240.406 265.552 240.23 263.226Z" fill="#CF7F6E"/>
<path d="M403.46 196.159C408.504 199.481 420.605 214.908 416.182 228.902C411.76 242.897 387.264 272.086 370.868 286.323C370.868 286.323 341.845 274.065 333.929 241.008C333.929 241.008 363.076 208.867 372.738 201.431C382.399 193.995 397.893 192.509 403.46 196.159Z" fill="#FEF8EC"/>
<path d="M371.418 249.374C370.121 249.389 368.826 249.265 367.556 249.004L367.783 248.098C367.907 248.131 381.27 251.557 388.972 239.082L389.769 239.556C384.383 248.316 376.064 249.374 371.418 249.374ZM370.835 287.395L370.555 287.262C370.441 287.21 359.275 281.867 351.397 272.461L352.114 271.859C359.161 280.277 368.908 285.393 370.673 286.28C373.264 283.907 396.603 262.178 406.103 241.858L406.948 242.252C396.854 263.843 371.324 286.954 371.067 287.186L370.835 287.395Z" fill="#1B2E4E"/>
<path d="M310.126 351.288C304.707 351.288 291.362 350.012 278.887 338.751L279.508 338.058C295.244 352.256 312.337 350.273 312.503 350.254L312.622 351.179C311.793 351.26 310.959 351.297 310.126 351.288Z" fill="white"/>
<path d="M287.134 353.651H375.561V349.623H287.134C286.601 349.623 286.089 349.835 285.711 350.212C285.334 350.589 285.122 351.101 285.122 351.635C285.121 351.899 285.173 352.161 285.274 352.406C285.375 352.651 285.523 352.873 285.71 353.06C285.897 353.248 286.119 353.396 286.363 353.498C286.608 353.599 286.87 353.651 287.134 353.651Z" fill="#1B2E4E"/>
<path d="M376.828 434.305C378.309 434.305 379.505 433.323 379.505 432.113V351.269H374.147V432.113C374.147 433.323 375.367 434.305 376.828 434.305Z" fill="#F2E6D6"/>
<path d="M376.074 352.199H375.139V431.283H376.074V352.199Z" fill="#1B2E4E"/>
<path d="M350.553 442.325H349.603V434.818C349.606 432.332 350.595 429.948 352.353 428.19C354.111 426.432 356.494 425.443 358.98 425.441H394.562C397.048 425.443 399.431 426.432 401.188 428.19C402.945 429.949 403.933 432.332 403.934 434.818V441.106H402.985V434.818C402.983 432.58 402.092 430.434 400.51 428.851C398.927 427.269 396.781 426.378 394.543 426.376H358.995C356.756 426.378 354.611 427.269 353.028 428.851C351.445 430.434 350.555 432.58 350.553 434.818V442.325Z" fill="#1B2E4E"/>
<path d="M336.871 442.325H335.922V434.818C335.925 432.332 336.914 429.948 338.672 428.19C340.43 426.432 342.813 425.443 345.299 425.441H408.243C410.727 425.447 413.106 426.438 414.86 428.195C416.614 429.953 417.6 432.335 417.601 434.818V441.106H416.652V434.818C416.651 432.58 415.762 430.434 414.18 428.851C412.598 427.269 410.453 426.378 408.215 426.376H345.314C343.075 426.378 340.929 427.269 339.347 428.851C337.764 430.434 336.874 432.58 336.871 434.818V442.325Z" fill="#1B2E4E"/>
<path d="M345.646 441.016C345.645 441.897 345.905 442.759 346.394 443.492C346.884 444.226 347.579 444.798 348.393 445.136C349.207 445.474 350.104 445.563 350.968 445.391C351.833 445.22 352.627 444.796 353.251 444.173C353.875 443.55 354.3 442.756 354.472 441.891C354.644 441.027 354.556 440.131 354.219 439.316C353.882 438.502 353.311 437.805 352.578 437.316C351.845 436.826 350.983 436.564 350.102 436.564C348.921 436.564 347.788 437.033 346.953 437.868C346.117 438.702 345.647 439.835 345.646 441.016ZM332.183 441.016C332.182 441.897 332.443 442.759 332.932 443.492C333.421 444.226 334.116 444.798 334.93 445.136C335.745 445.474 336.641 445.563 337.505 445.391C338.37 445.22 339.164 444.796 339.788 444.173C340.412 443.55 340.837 442.756 341.009 441.891C341.181 441.027 341.093 440.131 340.756 439.316C340.419 438.502 339.848 437.805 339.115 437.316C338.382 436.826 337.52 436.564 336.639 436.564C335.458 436.564 334.325 437.033 333.49 437.868C332.654 438.702 332.184 439.835 332.183 441.016ZM412.775 441.016C412.774 441.897 413.035 442.759 413.524 443.493C414.014 444.226 414.709 444.798 415.524 445.136C416.338 445.474 417.235 445.563 418.099 445.391C418.964 445.219 419.759 444.795 420.382 444.171C421.006 443.548 421.43 442.753 421.602 441.888C421.774 441.024 421.685 440.127 421.347 439.313C421.009 438.498 420.437 437.803 419.704 437.313C418.97 436.824 418.108 436.563 417.227 436.564C416.046 436.566 414.915 437.035 414.08 437.869C413.246 438.704 412.777 439.835 412.775 441.016ZM398.738 441.016C398.737 441.897 398.998 442.759 399.487 443.492C399.976 444.226 400.671 444.798 401.486 445.136C402.3 445.474 403.196 445.563 404.061 445.391C404.925 445.22 405.72 444.796 406.343 444.173C406.967 443.55 407.392 442.756 407.564 441.891C407.737 441.027 407.649 440.131 407.311 439.316C406.974 438.502 406.403 437.805 405.67 437.316C404.937 436.826 404.076 436.564 403.194 436.564C402.013 436.564 400.881 437.033 400.045 437.868C399.209 438.702 398.739 439.835 398.738 441.016Z" fill="#1B2E4E"/>
<path d="M430.324 353.305H361.666C364.765 352.702 380.421 347.454 376.406 303.003C374.009 276.509 390.106 235.878 395.079 225.068H466.219C466.418 226.326 465.915 228.219 463.466 230.976C457.943 237.188 446.207 285.283 444.598 299.093C443.032 312.532 455.812 344.35 430.324 353.305Z" fill="#F2E6D6"/>
<path d="M430.324 353.305H361.666C364.765 352.702 380.421 347.454 376.406 303.003C384.312 328.41 406.948 346.538 443.084 342.927C440.674 347.397 436.692 351.065 430.324 353.305Z" fill="#D3C8BC"/>
<path d="M361.667 353.642H430.433C449.666 346.884 447.351 326.887 445.661 312.285C445.054 307.065 444.537 302.557 444.931 299.169C446.61 284.747 458.303 237.33 463.718 231.237C465.863 228.822 466.817 226.743 466.565 225.068L466.522 224.788H394.866L394.776 224.983C388.787 237.995 373.748 277.396 376.069 303.088C380.05 347.155 364.718 352.403 361.6 353.011L361.667 353.642ZM430.267 352.973H363.797C369.079 350.657 380.193 341.228 376.738 302.994C374.418 277.577 389.271 238.588 395.298 225.41H465.92C465.996 226.834 465.07 228.675 463.215 230.758C457.743 236.927 445.951 284.581 444.266 299.06C443.858 302.524 444.385 307.065 444.997 312.347C446.748 327.504 448.921 346.372 430.267 352.973Z" fill="#1B2E4E"/>
<path d="M357.419 353.808H364.898C364.898 353.808 385.484 350.553 380.72 310.824C380.423 308.322 379.44 305.952 377.88 303.974C376.32 301.997 374.243 300.49 371.879 299.619C360.708 295.557 337.935 288.914 308.138 288.914C308.138 288.914 307.839 288.937 307.35 289.028C333.858 289.915 354.093 295.861 364.395 299.619C366.761 300.489 368.839 301.996 370.399 303.975C371.96 305.953 372.942 308.326 373.236 310.828C378.005 350.553 357.419 353.808 357.419 353.808Z" fill="#D3C8BC"/>
<path d="M291.604 309.001C297.897 327.879 304.341 343.828 304.341 343.828C304.341 343.828 307.407 353.794 319.835 353.794H327.314C314.886 353.794 311.815 343.828 311.815 343.828C311.815 343.828 305.366 327.879 299.088 309.001C293.669 292.753 304.308 289.588 307.35 289.028C305.162 288.947 302.927 288.914 300.654 288.914C300.654 288.914 285.312 290.138 291.604 309.001Z" fill="#D3C8BC"/>
<path d="M357.524 354.729C358.402 354.591 378.949 350.871 374.133 310.714C373.823 308.039 372.775 305.503 371.107 303.39C369.438 301.276 367.214 299.669 364.685 298.746C353.651 294.722 330.655 287.974 300.621 287.974H300.545C300.298 287.974 294.376 288.52 291.149 293.427C288.61 297.266 288.453 302.604 290.674 309.295C296.905 327.978 303.364 344.018 303.402 344.103C303.439 344.189 306.823 354.733 319.788 354.733H357.452L357.524 354.729ZM364.039 300.502C366.247 301.304 368.187 302.706 369.641 304.551C371.096 306.395 372.007 308.608 372.273 310.942C376.743 348.147 358.473 352.626 357.291 352.878H319.802C308.251 352.878 305.319 343.942 305.172 343.487C305.11 343.33 298.67 327.352 292.458 308.717C290.423 302.604 290.503 297.802 292.7 294.48C295.32 290.503 300.232 289.891 300.673 289.849C330.389 289.849 353.125 296.521 364.039 300.502ZM455.228 252.06H408.504V251.125H455.589L455.228 252.06ZM452.865 261.072H405.804V260.137H453.116L452.865 261.072ZM450.559 270.084H402.197V269.149H450.791L450.559 270.084ZM25.7441 446.302H253.954C254.174 446.302 254.385 446.214 254.541 446.059C254.697 445.903 254.784 445.692 254.784 445.471C254.784 445.251 254.697 445.04 254.541 444.884C254.385 444.729 254.174 444.641 253.954 444.641H25.7441C25.5238 444.641 25.3126 444.729 25.1569 444.884C25.0011 445.04 24.9136 445.251 24.9136 445.471C24.9136 445.692 25.0011 445.903 25.1569 446.059C25.3126 446.214 25.5238 446.302 25.7441 446.302ZM264.474 446.302H440.427C440.647 446.302 440.858 446.214 441.014 446.059C441.17 445.903 441.257 445.692 441.257 445.471C441.257 445.251 441.17 445.04 441.014 444.884C440.858 444.729 440.647 444.641 440.427 444.641H264.474C264.254 444.641 264.043 444.729 263.887 444.884C263.731 445.04 263.644 445.251 263.644 445.471C263.644 445.692 263.731 445.903 263.887 446.059C264.043 446.214 264.254 446.302 264.474 446.302ZM450.952 446.302H524.256C524.476 446.302 524.687 446.214 524.843 446.059C524.999 445.903 525.086 445.692 525.086 445.471C525.086 445.251 524.999 445.04 524.843 444.884C524.687 444.729 524.476 444.641 524.256 444.641H450.952C450.732 444.641 450.521 444.729 450.365 444.884C450.209 445.04 450.122 445.251 450.122 445.471C450.122 445.692 450.209 445.903 450.365 446.059C450.521 446.214 450.732 446.302 450.952 446.302Z" fill="#1B2E4E"/>
<path d="M357.419 354.221H364.965C365.183 354.188 370.327 353.314 374.93 347.478C379.13 342.139 383.614 331.443 381.137 310.776C380.837 308.197 379.826 305.752 378.218 303.714C376.609 301.676 374.465 300.125 372.026 299.235C361.012 295.225 338.067 288.501 308.142 288.501C308.09 288.501 307.782 288.534 307.279 288.624L303.482 289.322L307.317 289.45C334.11 290.337 354.487 296.45 364.253 300.009C366.548 300.846 368.565 302.306 370.079 304.224C371.592 306.142 372.543 308.444 372.823 310.871C375.262 331.201 370.925 341.688 366.834 346.903C362.435 352.522 357.405 353.39 357.343 353.395L357.419 354.221ZM364.865 353.39H360.034C362.954 352.059 365.498 350.026 367.442 347.473C371.642 342.134 376.131 331.438 373.649 310.771C373.351 308.192 372.34 305.746 370.731 303.708C369.122 301.67 366.978 300.119 364.538 299.23C352.184 294.834 339.39 291.793 326.379 290.162C347.217 292.084 363.133 296.881 371.737 300.009C374.032 300.847 376.048 302.306 377.562 304.225C379.075 306.143 380.026 308.444 380.307 310.871C382.746 331.201 378.409 341.688 374.313 346.903C370.09 352.299 365.278 353.314 364.865 353.39Z" fill="#1B2E4E"/>
</svg>
